<svg id="visual" viewBox="0 0 960 540" width="960" height="540" xmlns="http://www.w3.org/2000/svg" xmlns:xlink="http://www.w3.org/1999/xlink" version="1.1"><rect x="0" y="0" width="960" height="540" fill="#121212"></rect><defs><linearGradient id="grad1_0" x1="43.8%" y1="0%" x2="100%" y2="100%"><stop offset="14.444444444444446%" stop-color="#121212" stop-opacity="1"></stop><stop offset="85.55555555555554%" stop-color="#121212" stop-opacity="1"></stop></linearGradient></defs><defs><linearGradient id="grad2_0" x1="0%" y1="0%" x2="56.3%" y2="100%"><stop offset="14.444444444444446%" stop-color="#121212" stop-opacity="1"></stop><stop offset="85.55555555555554%" stop-color="#121212" stop-opacity="1"></stop></linearGradient></defs><g transform="translate(960, 0)"><path d="M0 432C-30.1 405.1 -60.2 378.2 -78.8 345.1C-97.4 312.1 -104.5 272.8 -127.6 264.9C-150.6 257 -189.7 280.4 -227.6 285.4C-265.5 290.4 -302.2 277 -315.1 251.3C-328 225.6 -317.1 187.5 -335.2 161.4C-353.2 135.3 -400.2 121 -421.2 96.1C-442.1 71.2 -437.1 35.6 -432 0L0 0Z" fill="#1e1e1e"></path></g><g transform="translate(0, 540)"><path d="M0 -432C16.3 -369 32.5 -306 71.7 -313.9C110.8 -321.9 172.7 -400.7 185.3 -384.7C197.8 -368.7 161 -257.9 185.2 -232.2C209.4 -206.5 294.6 -266 337.8 -269.3C380.9 -272.6 381.8 -219.7 369.4 -177.9C357 -136 331.1 -105.2 339.3 -77.4C347.5 -49.6 389.7 -24.8 432 0L0 0Z" fill="#1e1e1e"></path></g></svg>